<svg xmlns="http://www.w3.org/2000/svg" width="130.999" height="173.593" viewBox="0 0 130.999 173.593"><g transform="translate(0)"><rect width="8.25" height="56.5" rx="4" transform="translate(124.952 0.808) rotate(45)" fill="#6700f7"/><rect width="8.25" height="26.5" rx="4" transform="translate(103.759 0) rotate(45)" fill="#6700f7"/><rect width="8.25" height="56.5" rx="4" transform="translate(124.952 21.808) rotate(45)" fill="#6700f7"/><rect width="8.25" height="56.5" rx="4" transform="translate(124.952 63.808) rotate(45)" fill="#6700f7"/><rect width="8.25" height="56.5" rx="4" transform="translate(124.952 85.808) rotate(45)" fill="#6700f7"/><rect width="8.25" height="56.5" rx="4" transform="translate(124.952 106.808) rotate(45)" fill="#6700f7"/><rect width="8.25" height="56.5" rx="4" transform="translate(124.952 127.808) rotate(45)" fill="#6700f7"/><rect width="8.25" height="26.5" rx="4" transform="translate(124.952 148.808) rotate(45)" fill="#6700f7"/><rect width="8.25" height="26.5" rx="4" transform="translate(39.952 148.808) rotate(45)" fill="#6700f7"/><rect width="8.25" height="56.5" rx="4" transform="translate(39.952 127.808) rotate(45)" fill="#6700f7"/><rect width="8.25" height="56.5" rx="4" transform="translate(39.952 106.808) rotate(45)" fill="#6700f7"/><rect width="8.25" height="56.5" rx="4" transform="translate(39.952 63.808) rotate(45)" fill="#6700f7"/><rect width="8.25" height="56.5" rx="4" transform="translate(39.952 21.808) rotate(45)" fill="#6700f7"/><rect width="8.25" height="56.5" rx="4" transform="translate(39.952 0.808) rotate(45)" fill="#6700f7"/><rect width="8.25" height="26.5" rx="4" transform="translate(18.759 0) rotate(45)" fill="#6700f7"/><rect width="8.25" height="56.5" rx="4" transform="translate(39.952 42.808) rotate(45)" fill="#6700f7"/><rect width="8.25" height="56.5" rx="4" transform="translate(82.952 63.808) rotate(45)" fill="#6700f7"/><rect width="8.25" height="86.5" rx="4" transform="translate(125.165 42.594) rotate(45)" fill="#6700f7"/><rect width="8.25" height="86.5" rx="4" transform="translate(61.165 63.594) rotate(45)" fill="#6700f7"/></g></svg>